<mxfile host="app.diagrams.net" modified="2022-04-07T13:17:07.865Z" agent="5.0 (Windows NT 10.0; Win64; x64) AppleWebKit/537.36 (KHTML, like Gecko) Chrome/100.0.4896.75 Safari/537.36" etag="idDxd94WT7kkQsI_FcQY" version="17.4.0" type="github">
  <diagram id="C5RBs43oDa-KdzZeNtuy" name="Page-1">
    <mxGraphModel dx="1326" dy="708" grid="1" gridSize="10" guides="1" tooltips="1" connect="1" arrows="1" fold="1" page="1" pageScale="1" pageWidth="827" pageHeight="1169" math="0" shadow="0">
      <root>
        <mxCell id="WIyWlLk6GJQsqaUBKTNV-0" />
        <mxCell id="WIyWlLk6GJQsqaUBKTNV-1" parent="WIyWlLk6GJQsqaUBKTNV-0" />
        <mxCell id="zkfFHV4jXpPFQw0GAbJ--0" value="Hayvanlar" style="swimlane;fontStyle=2;align=center;verticalAlign=top;childLayout=stackLayout;horizontal=1;startSize=26;horizontalStack=0;resizeParent=1;resizeLast=0;collapsible=1;marginBottom=0;rounded=0;shadow=0;strokeWidth=1;" parent="WIyWlLk6GJQsqaUBKTNV-1" vertex="1">
          <mxGeometry x="270" y="120" width="160" height="160" as="geometry">
            <mxRectangle x="230" y="140" width="160" height="26" as="alternateBounds" />
          </mxGeometry>
        </mxCell>
        <mxCell id="zkfFHV4jXpPFQw0GAbJ--1" value="turAdi : string" style="text;align=left;verticalAlign=top;spacingLeft=4;spacingRight=4;overflow=hidden;rotatable=0;points=[[0,0.5],[1,0.5]];portConstraint=eastwest;" parent="zkfFHV4jXpPFQw0GAbJ--0" vertex="1">
          <mxGeometry y="26" width="160" height="26" as="geometry" />
        </mxCell>
        <mxCell id="zkfFHV4jXpPFQw0GAbJ--2" value="agirlik: int" style="text;align=left;verticalAlign=top;spacingLeft=4;spacingRight=4;overflow=hidden;rotatable=0;points=[[0,0.5],[1,0.5]];portConstraint=eastwest;rounded=0;shadow=0;html=0;" parent="zkfFHV4jXpPFQw0GAbJ--0" vertex="1">
          <mxGeometry y="52" width="160" height="26" as="geometry" />
        </mxCell>
        <mxCell id="zkfFHV4jXpPFQw0GAbJ--3" value=" yas: int" style="text;align=left;verticalAlign=top;spacingLeft=4;spacingRight=4;overflow=hidden;rotatable=0;points=[[0,0.5],[1,0.5]];portConstraint=eastwest;rounded=0;shadow=0;html=0;" parent="zkfFHV4jXpPFQw0GAbJ--0" vertex="1">
          <mxGeometry y="78" width="160" height="26" as="geometry" />
        </mxCell>
        <mxCell id="zkfFHV4jXpPFQw0GAbJ--4" value="" style="line;html=1;strokeWidth=1;align=left;verticalAlign=middle;spacingTop=-1;spacingLeft=3;spacingRight=3;rotatable=0;labelPosition=right;points=[];portConstraint=eastwest;" parent="zkfFHV4jXpPFQw0GAbJ--0" vertex="1">
          <mxGeometry y="104" width="160" height="8" as="geometry" />
        </mxCell>
        <mxCell id="zkfFHV4jXpPFQw0GAbJ--5" value="+ getDrugDosage():void&#xa;+ timeToFeed():void" style="text;align=left;verticalAlign=top;spacingLeft=4;spacingRight=4;overflow=hidden;rotatable=0;points=[[0,0.5],[1,0.5]];portConstraint=eastwest;" parent="zkfFHV4jXpPFQw0GAbJ--0" vertex="1">
          <mxGeometry y="112" width="160" height="48" as="geometry" />
        </mxCell>
        <mxCell id="zkfFHV4jXpPFQw0GAbJ--6" value="Atlar" style="swimlane;fontStyle=0;align=center;verticalAlign=top;childLayout=stackLayout;horizontal=1;startSize=26;horizontalStack=0;resizeParent=1;resizeLast=0;collapsible=1;marginBottom=0;rounded=0;shadow=0;strokeWidth=1;" parent="WIyWlLk6GJQsqaUBKTNV-1" vertex="1">
          <mxGeometry y="360" width="160" height="74" as="geometry">
            <mxRectangle x="130" y="380" width="160" height="26" as="alternateBounds" />
          </mxGeometry>
        </mxCell>
        <mxCell id="ilpsoPtOAb2Pmbqe1EB--29" value="+ getDrugDosage():void&#xa;+ timeToFeed():void" style="text;align=left;verticalAlign=top;spacingLeft=4;spacingRight=4;overflow=hidden;rotatable=0;points=[[0,0.5],[1,0.5]];portConstraint=eastwest;" vertex="1" parent="zkfFHV4jXpPFQw0GAbJ--6">
          <mxGeometry y="26" width="160" height="48" as="geometry" />
        </mxCell>
        <mxCell id="zkfFHV4jXpPFQw0GAbJ--12" value="" style="endArrow=block;endSize=10;endFill=0;shadow=0;strokeWidth=1;rounded=0;edgeStyle=elbowEdgeStyle;elbow=vertical;" parent="WIyWlLk6GJQsqaUBKTNV-1" source="zkfFHV4jXpPFQw0GAbJ--6" target="zkfFHV4jXpPFQw0GAbJ--0" edge="1">
          <mxGeometry width="160" relative="1" as="geometry">
            <mxPoint x="200" y="203" as="sourcePoint" />
            <mxPoint x="200" y="203" as="targetPoint" />
            <Array as="points">
              <mxPoint x="340" y="310" />
              <mxPoint x="350" y="290" />
              <mxPoint x="300" y="300" />
              <mxPoint x="290" y="310" />
              <mxPoint x="300" y="300" />
              <mxPoint x="90" y="330" />
            </Array>
          </mxGeometry>
        </mxCell>
        <mxCell id="ilpsoPtOAb2Pmbqe1EB--0" value="Kedigiller" style="swimlane;fontStyle=0;align=center;verticalAlign=top;childLayout=stackLayout;horizontal=1;startSize=26;horizontalStack=0;resizeParent=1;resizeLast=0;collapsible=1;marginBottom=0;rounded=0;shadow=0;strokeWidth=1;" vertex="1" parent="WIyWlLk6GJQsqaUBKTNV-1">
          <mxGeometry x="270" y="360" width="160" height="74" as="geometry">
            <mxRectangle x="130" y="380" width="160" height="26" as="alternateBounds" />
          </mxGeometry>
        </mxCell>
        <mxCell id="ilpsoPtOAb2Pmbqe1EB--30" value="+ getDrugDosage():void&#xa;+ timeToFeed():void" style="text;align=left;verticalAlign=top;spacingLeft=4;spacingRight=4;overflow=hidden;rotatable=0;points=[[0,0.5],[1,0.5]];portConstraint=eastwest;" vertex="1" parent="ilpsoPtOAb2Pmbqe1EB--0">
          <mxGeometry y="26" width="160" height="48" as="geometry" />
        </mxCell>
        <mxCell id="ilpsoPtOAb2Pmbqe1EB--7" value="" style="endArrow=block;endSize=10;endFill=0;shadow=0;strokeWidth=1;rounded=0;edgeStyle=elbowEdgeStyle;elbow=vertical;exitX=0.5;exitY=0;exitDx=0;exitDy=0;entryX=0.509;entryY=1.077;entryDx=0;entryDy=0;entryPerimeter=0;" edge="1" parent="WIyWlLk6GJQsqaUBKTNV-1" source="ilpsoPtOAb2Pmbqe1EB--8" target="zkfFHV4jXpPFQw0GAbJ--5">
          <mxGeometry width="160" relative="1" as="geometry">
            <mxPoint x="510" y="350" as="sourcePoint" />
            <mxPoint x="300" y="280" as="targetPoint" />
            <Array as="points">
              <mxPoint x="340" y="310" />
              <mxPoint x="380" y="320" />
              <mxPoint x="340" y="300" />
              <mxPoint x="390" y="310" />
              <mxPoint x="340" y="290" />
              <mxPoint x="350" y="290" />
              <mxPoint x="370" y="310" />
              <mxPoint x="370" y="290" />
              <mxPoint x="350" y="290" />
              <mxPoint x="350" y="290" />
              <mxPoint x="440" y="310" />
              <mxPoint x="530" y="290" />
              <mxPoint x="360" y="280" />
              <mxPoint x="320" y="300" />
              <mxPoint x="440" y="320" />
            </Array>
          </mxGeometry>
        </mxCell>
        <mxCell id="ilpsoPtOAb2Pmbqe1EB--8" value="Sürüngenler" style="swimlane;fontStyle=0;align=center;verticalAlign=top;childLayout=stackLayout;horizontal=1;startSize=26;horizontalStack=0;resizeParent=1;resizeLast=0;collapsible=1;marginBottom=0;rounded=0;shadow=0;strokeWidth=1;" vertex="1" parent="WIyWlLk6GJQsqaUBKTNV-1">
          <mxGeometry x="540" y="360" width="160" height="74" as="geometry">
            <mxRectangle x="130" y="380" width="160" height="26" as="alternateBounds" />
          </mxGeometry>
        </mxCell>
        <mxCell id="ilpsoPtOAb2Pmbqe1EB--31" value="+ getDrugDosage():void&#xa;+ timeToFeed():void" style="text;align=left;verticalAlign=top;spacingLeft=4;spacingRight=4;overflow=hidden;rotatable=0;points=[[0,0.5],[1,0.5]];portConstraint=eastwest;" vertex="1" parent="ilpsoPtOAb2Pmbqe1EB--8">
          <mxGeometry y="26" width="160" height="48" as="geometry" />
        </mxCell>
        <mxCell id="ilpsoPtOAb2Pmbqe1EB--17" value="" style="edgeStyle=elbowEdgeStyle;elbow=vertical;endArrow=block;html=1;rounded=0;endFill=0;exitX=0.5;exitY=0;exitDx=0;exitDy=0;" edge="1" parent="WIyWlLk6GJQsqaUBKTNV-1" source="ilpsoPtOAb2Pmbqe1EB--32">
          <mxGeometry width="50" height="50" relative="1" as="geometry">
            <mxPoint x="30" y="484" as="sourcePoint" />
            <mxPoint x="80" y="434" as="targetPoint" />
            <Array as="points">
              <mxPoint x="80" y="456" />
            </Array>
          </mxGeometry>
        </mxCell>
        <mxCell id="ilpsoPtOAb2Pmbqe1EB--22" value="" style="endArrow=none;html=1;edgeStyle=orthogonalEdgeStyle;rounded=0;entryX=0.5;entryY=0;entryDx=0;entryDy=0;" edge="1" parent="WIyWlLk6GJQsqaUBKTNV-1" target="ilpsoPtOAb2Pmbqe1EB--0">
          <mxGeometry relative="1" as="geometry">
            <mxPoint x="340" y="290" as="sourcePoint" />
            <mxPoint x="420" y="380" as="targetPoint" />
            <Array as="points">
              <mxPoint x="340" y="360" />
            </Array>
          </mxGeometry>
        </mxCell>
        <mxCell id="ilpsoPtOAb2Pmbqe1EB--23" value="&lt;br&gt;" style="edgeLabel;resizable=0;html=1;align=left;verticalAlign=bottom;" connectable="0" vertex="1" parent="ilpsoPtOAb2Pmbqe1EB--22">
          <mxGeometry x="-1" relative="1" as="geometry" />
        </mxCell>
        <mxCell id="ilpsoPtOAb2Pmbqe1EB--24" value="&lt;br&gt;" style="edgeLabel;resizable=0;html=1;align=right;verticalAlign=bottom;" connectable="0" vertex="1" parent="ilpsoPtOAb2Pmbqe1EB--22">
          <mxGeometry x="1" relative="1" as="geometry" />
        </mxCell>
        <mxCell id="ilpsoPtOAb2Pmbqe1EB--27" value="extends" style="edgeLabel;html=1;align=center;verticalAlign=middle;resizable=0;points=[];" vertex="1" connectable="0" parent="ilpsoPtOAb2Pmbqe1EB--22">
          <mxGeometry x="-0.663" relative="1" as="geometry">
            <mxPoint y="6" as="offset" />
          </mxGeometry>
        </mxCell>
        <mxCell id="ilpsoPtOAb2Pmbqe1EB--32" value="At" style="swimlane;fontStyle=1;align=center;verticalAlign=top;childLayout=stackLayout;horizontal=1;startSize=26;horizontalStack=0;resizeParent=1;resizeParentMax=0;resizeLast=0;collapsible=1;marginBottom=0;" vertex="1" parent="WIyWlLk6GJQsqaUBKTNV-1">
          <mxGeometry y="470" width="160" height="70" as="geometry" />
        </mxCell>
        <mxCell id="ilpsoPtOAb2Pmbqe1EB--34" value="" style="line;strokeWidth=1;fillColor=none;align=left;verticalAlign=middle;spacingTop=-1;spacingLeft=3;spacingRight=3;rotatable=0;labelPosition=right;points=[];portConstraint=eastwest;" vertex="1" parent="ilpsoPtOAb2Pmbqe1EB--32">
          <mxGeometry y="26" width="160" height="8" as="geometry" />
        </mxCell>
        <mxCell id="ilpsoPtOAb2Pmbqe1EB--93" value="+ getDrugDosage():void&#xa;" style="text;align=left;verticalAlign=top;spacingLeft=4;spacingRight=4;overflow=hidden;rotatable=0;points=[[0,0.5],[1,0.5]];portConstraint=eastwest;" vertex="1" parent="ilpsoPtOAb2Pmbqe1EB--32">
          <mxGeometry y="34" width="160" height="36" as="geometry" />
        </mxCell>
        <mxCell id="ilpsoPtOAb2Pmbqe1EB--41" value="" style="edgeStyle=elbowEdgeStyle;elbow=vertical;endArrow=block;html=1;rounded=0;endFill=0;entryX=1;entryY=0.25;entryDx=0;entryDy=0;startArrow=none;" edge="1" parent="WIyWlLk6GJQsqaUBKTNV-1" source="ilpsoPtOAb2Pmbqe1EB--37" target="zkfFHV4jXpPFQw0GAbJ--6">
          <mxGeometry width="50" height="50" relative="1" as="geometry">
            <mxPoint x="170" y="630" as="sourcePoint" />
            <mxPoint x="85" y="540.0000000000001" as="targetPoint" />
            <Array as="points">
              <mxPoint x="220" y="550" />
              <mxPoint x="210" y="550" />
              <mxPoint x="190" y="410" />
              <mxPoint x="200" y="420" />
              <mxPoint x="180" y="400" />
              <mxPoint x="190" y="430" />
              <mxPoint x="180" y="450" />
              <mxPoint x="180" y="450" />
              <mxPoint x="180" y="460" />
              <mxPoint x="190" y="500" />
              <mxPoint x="180" y="600" />
              <mxPoint x="180" y="450" />
              <mxPoint x="190" y="460" />
              <mxPoint x="140" y="450" />
              <mxPoint x="190" y="470" />
              <mxPoint x="170" y="450" />
              <mxPoint x="85" y="562" />
            </Array>
          </mxGeometry>
        </mxCell>
        <mxCell id="ilpsoPtOAb2Pmbqe1EB--97" value="extends" style="edgeLabel;html=1;align=center;verticalAlign=middle;resizable=0;points=[];" vertex="1" connectable="0" parent="ilpsoPtOAb2Pmbqe1EB--41">
          <mxGeometry x="-0.8154" y="3" relative="1" as="geometry">
            <mxPoint as="offset" />
          </mxGeometry>
        </mxCell>
        <mxCell id="ilpsoPtOAb2Pmbqe1EB--37" value="Zebra" style="swimlane;fontStyle=1;align=center;verticalAlign=top;childLayout=stackLayout;horizontal=1;startSize=26;horizontalStack=0;resizeParent=1;resizeParentMax=0;resizeLast=0;collapsible=1;marginBottom=0;" vertex="1" parent="WIyWlLk6GJQsqaUBKTNV-1">
          <mxGeometry y="550" width="160" height="56" as="geometry" />
        </mxCell>
        <mxCell id="ilpsoPtOAb2Pmbqe1EB--39" value="" style="line;strokeWidth=1;fillColor=none;align=left;verticalAlign=middle;spacingTop=-1;spacingLeft=3;spacingRight=3;rotatable=0;labelPosition=right;points=[];portConstraint=eastwest;" vertex="1" parent="ilpsoPtOAb2Pmbqe1EB--37">
          <mxGeometry y="26" width="160" height="8" as="geometry" />
        </mxCell>
        <mxCell id="ilpsoPtOAb2Pmbqe1EB--94" value="+ getDrugDosage():void" style="text;align=left;verticalAlign=top;spacingLeft=4;spacingRight=4;overflow=hidden;rotatable=0;points=[[0,0.5],[1,0.5]];portConstraint=eastwest;" vertex="1" parent="ilpsoPtOAb2Pmbqe1EB--37">
          <mxGeometry y="34" width="160" height="22" as="geometry" />
        </mxCell>
        <mxCell id="ilpsoPtOAb2Pmbqe1EB--45" value="Eşek" style="swimlane;fontStyle=1;align=center;verticalAlign=top;childLayout=stackLayout;horizontal=1;startSize=26;horizontalStack=0;resizeParent=1;resizeParentMax=0;resizeLast=0;collapsible=1;marginBottom=0;" vertex="1" parent="WIyWlLk6GJQsqaUBKTNV-1">
          <mxGeometry y="622" width="160" height="58" as="geometry" />
        </mxCell>
        <mxCell id="ilpsoPtOAb2Pmbqe1EB--95" value="+ getDrugDosage():void&#xa;" style="text;align=left;verticalAlign=top;spacingLeft=4;spacingRight=4;overflow=hidden;rotatable=0;points=[[0,0.5],[1,0.5]];portConstraint=eastwest;" vertex="1" parent="ilpsoPtOAb2Pmbqe1EB--45">
          <mxGeometry y="26" width="160" height="24" as="geometry" />
        </mxCell>
        <mxCell id="ilpsoPtOAb2Pmbqe1EB--47" value="" style="line;strokeWidth=1;fillColor=none;align=left;verticalAlign=middle;spacingTop=-1;spacingLeft=3;spacingRight=3;rotatable=0;labelPosition=right;points=[];portConstraint=eastwest;" vertex="1" parent="ilpsoPtOAb2Pmbqe1EB--45">
          <mxGeometry y="50" width="160" height="8" as="geometry" />
        </mxCell>
        <mxCell id="ilpsoPtOAb2Pmbqe1EB--49" value="" style="edgeStyle=elbowEdgeStyle;elbow=vertical;endArrow=block;html=1;rounded=0;endFill=0;entryX=1.012;entryY=0.129;entryDx=0;entryDy=0;startArrow=none;entryPerimeter=0;" edge="1" parent="WIyWlLk6GJQsqaUBKTNV-1" source="ilpsoPtOAb2Pmbqe1EB--45" target="zkfFHV4jXpPFQw0GAbJ--6">
          <mxGeometry width="50" height="50" relative="1" as="geometry">
            <mxPoint x="160" y="700" as="sourcePoint" />
            <mxPoint x="240.0000000000001" y="470" as="targetPoint" />
            <Array as="points">
              <mxPoint x="230" y="580" />
              <mxPoint x="200" y="370" />
              <mxPoint x="220" y="380" />
              <mxPoint x="200" y="680" />
              <mxPoint x="220" y="570" />
              <mxPoint x="270" y="511.5" />
              <mxPoint x="250" y="491.5" />
              <mxPoint x="260" y="521.5" />
              <mxPoint x="250" y="541.5" />
              <mxPoint x="250" y="541.5" />
              <mxPoint x="250" y="551.5" />
              <mxPoint x="260" y="591.5" />
              <mxPoint x="250" y="691.5" />
              <mxPoint x="250" y="541.5" />
              <mxPoint x="260" y="551.5" />
              <mxPoint x="210" y="541.5" />
              <mxPoint x="260" y="561.5" />
              <mxPoint x="240" y="541.5" />
              <mxPoint x="155" y="653.5" />
            </Array>
          </mxGeometry>
        </mxCell>
        <mxCell id="ilpsoPtOAb2Pmbqe1EB--98" value="extends" style="edgeLabel;html=1;align=center;verticalAlign=middle;resizable=0;points=[];" vertex="1" connectable="0" parent="ilpsoPtOAb2Pmbqe1EB--49">
          <mxGeometry x="-0.8611" y="3" relative="1" as="geometry">
            <mxPoint as="offset" />
          </mxGeometry>
        </mxCell>
        <mxCell id="ilpsoPtOAb2Pmbqe1EB--59" value="Aslan" style="swimlane;fontStyle=1;align=center;verticalAlign=top;childLayout=stackLayout;horizontal=1;startSize=26;horizontalStack=0;resizeParent=1;resizeParentMax=0;resizeLast=0;collapsible=1;marginBottom=0;" vertex="1" parent="WIyWlLk6GJQsqaUBKTNV-1">
          <mxGeometry x="270" y="460" width="160" height="70" as="geometry" />
        </mxCell>
        <mxCell id="ilpsoPtOAb2Pmbqe1EB--61" value="" style="line;strokeWidth=1;fillColor=none;align=left;verticalAlign=middle;spacingTop=-1;spacingLeft=3;spacingRight=3;rotatable=0;labelPosition=right;points=[];portConstraint=eastwest;" vertex="1" parent="ilpsoPtOAb2Pmbqe1EB--59">
          <mxGeometry y="26" width="160" height="8" as="geometry" />
        </mxCell>
        <mxCell id="ilpsoPtOAb2Pmbqe1EB--121" value="+ getDrugDosage():void&#xa;" style="text;align=left;verticalAlign=top;spacingLeft=4;spacingRight=4;overflow=hidden;rotatable=0;points=[[0,0.5],[1,0.5]];portConstraint=eastwest;" vertex="1" parent="ilpsoPtOAb2Pmbqe1EB--59">
          <mxGeometry y="34" width="160" height="36" as="geometry" />
        </mxCell>
        <mxCell id="ilpsoPtOAb2Pmbqe1EB--63" value="Kaplan" style="swimlane;fontStyle=1;align=center;verticalAlign=top;childLayout=stackLayout;horizontal=1;startSize=26;horizontalStack=0;resizeParent=1;resizeParentMax=0;resizeLast=0;collapsible=1;marginBottom=0;" vertex="1" parent="WIyWlLk6GJQsqaUBKTNV-1">
          <mxGeometry x="270" y="540" width="160" height="70" as="geometry" />
        </mxCell>
        <mxCell id="ilpsoPtOAb2Pmbqe1EB--122" value="+ getDrugDosage():void&#xa;" style="text;align=left;verticalAlign=top;spacingLeft=4;spacingRight=4;overflow=hidden;rotatable=0;points=[[0,0.5],[1,0.5]];portConstraint=eastwest;" vertex="1" parent="ilpsoPtOAb2Pmbqe1EB--63">
          <mxGeometry y="26" width="160" height="36" as="geometry" />
        </mxCell>
        <mxCell id="ilpsoPtOAb2Pmbqe1EB--65" value="" style="line;strokeWidth=1;fillColor=none;align=left;verticalAlign=middle;spacingTop=-1;spacingLeft=3;spacingRight=3;rotatable=0;labelPosition=right;points=[];portConstraint=eastwest;" vertex="1" parent="ilpsoPtOAb2Pmbqe1EB--63">
          <mxGeometry y="62" width="160" height="8" as="geometry" />
        </mxCell>
        <mxCell id="ilpsoPtOAb2Pmbqe1EB--67" value="Çıta" style="swimlane;fontStyle=1;align=center;verticalAlign=top;childLayout=stackLayout;horizontal=1;startSize=26;horizontalStack=0;resizeParent=1;resizeParentMax=0;resizeLast=0;collapsible=1;marginBottom=0;" vertex="1" parent="WIyWlLk6GJQsqaUBKTNV-1">
          <mxGeometry x="270" y="622" width="160" height="70" as="geometry" />
        </mxCell>
        <mxCell id="ilpsoPtOAb2Pmbqe1EB--123" value="+ getDrugDosage():void&#xa;" style="text;align=left;verticalAlign=top;spacingLeft=4;spacingRight=4;overflow=hidden;rotatable=0;points=[[0,0.5],[1,0.5]];portConstraint=eastwest;" vertex="1" parent="ilpsoPtOAb2Pmbqe1EB--67">
          <mxGeometry y="26" width="160" height="36" as="geometry" />
        </mxCell>
        <mxCell id="ilpsoPtOAb2Pmbqe1EB--69" value="" style="line;strokeWidth=1;fillColor=none;align=left;verticalAlign=middle;spacingTop=-1;spacingLeft=3;spacingRight=3;rotatable=0;labelPosition=right;points=[];portConstraint=eastwest;" vertex="1" parent="ilpsoPtOAb2Pmbqe1EB--67">
          <mxGeometry y="62" width="160" height="8" as="geometry" />
        </mxCell>
        <mxCell id="ilpsoPtOAb2Pmbqe1EB--71" value="Fare" style="swimlane;fontStyle=1;align=center;verticalAlign=top;childLayout=stackLayout;horizontal=1;startSize=26;horizontalStack=0;resizeParent=1;resizeParentMax=0;resizeLast=0;collapsible=1;marginBottom=0;" vertex="1" parent="WIyWlLk6GJQsqaUBKTNV-1">
          <mxGeometry x="540" y="470" width="160" height="70" as="geometry" />
        </mxCell>
        <mxCell id="ilpsoPtOAb2Pmbqe1EB--73" value="" style="line;strokeWidth=1;fillColor=none;align=left;verticalAlign=middle;spacingTop=-1;spacingLeft=3;spacingRight=3;rotatable=0;labelPosition=right;points=[];portConstraint=eastwest;" vertex="1" parent="ilpsoPtOAb2Pmbqe1EB--71">
          <mxGeometry y="26" width="160" height="8" as="geometry" />
        </mxCell>
        <mxCell id="ilpsoPtOAb2Pmbqe1EB--124" value="+ getDrugDosage():void&#xa;" style="text;align=left;verticalAlign=top;spacingLeft=4;spacingRight=4;overflow=hidden;rotatable=0;points=[[0,0.5],[1,0.5]];portConstraint=eastwest;" vertex="1" parent="ilpsoPtOAb2Pmbqe1EB--71">
          <mxGeometry y="34" width="160" height="36" as="geometry" />
        </mxCell>
        <mxCell id="ilpsoPtOAb2Pmbqe1EB--75" value="Sıçan" style="swimlane;fontStyle=1;align=center;verticalAlign=top;childLayout=stackLayout;horizontal=1;startSize=26;horizontalStack=0;resizeParent=1;resizeParentMax=0;resizeLast=0;collapsible=1;marginBottom=0;" vertex="1" parent="WIyWlLk6GJQsqaUBKTNV-1">
          <mxGeometry x="540" y="550" width="160" height="70" as="geometry" />
        </mxCell>
        <mxCell id="ilpsoPtOAb2Pmbqe1EB--125" value="+ getDrugDosage():void&#xa;" style="text;align=left;verticalAlign=top;spacingLeft=4;spacingRight=4;overflow=hidden;rotatable=0;points=[[0,0.5],[1,0.5]];portConstraint=eastwest;" vertex="1" parent="ilpsoPtOAb2Pmbqe1EB--75">
          <mxGeometry y="26" width="160" height="36" as="geometry" />
        </mxCell>
        <mxCell id="ilpsoPtOAb2Pmbqe1EB--77" value="" style="line;strokeWidth=1;fillColor=none;align=left;verticalAlign=middle;spacingTop=-1;spacingLeft=3;spacingRight=3;rotatable=0;labelPosition=right;points=[];portConstraint=eastwest;" vertex="1" parent="ilpsoPtOAb2Pmbqe1EB--75">
          <mxGeometry y="62" width="160" height="8" as="geometry" />
        </mxCell>
        <mxCell id="ilpsoPtOAb2Pmbqe1EB--79" value="Sincap" style="swimlane;fontStyle=1;align=center;verticalAlign=top;childLayout=stackLayout;horizontal=1;startSize=26;horizontalStack=0;resizeParent=1;resizeParentMax=0;resizeLast=0;collapsible=1;marginBottom=0;" vertex="1" parent="WIyWlLk6GJQsqaUBKTNV-1">
          <mxGeometry x="540" y="630" width="160" height="70" as="geometry" />
        </mxCell>
        <mxCell id="ilpsoPtOAb2Pmbqe1EB--126" value="+ getDrugDosage():void&#xa;" style="text;align=left;verticalAlign=top;spacingLeft=4;spacingRight=4;overflow=hidden;rotatable=0;points=[[0,0.5],[1,0.5]];portConstraint=eastwest;" vertex="1" parent="ilpsoPtOAb2Pmbqe1EB--79">
          <mxGeometry y="26" width="160" height="36" as="geometry" />
        </mxCell>
        <mxCell id="ilpsoPtOAb2Pmbqe1EB--81" value="" style="line;strokeWidth=1;fillColor=none;align=left;verticalAlign=middle;spacingTop=-1;spacingLeft=3;spacingRight=3;rotatable=0;labelPosition=right;points=[];portConstraint=eastwest;" vertex="1" parent="ilpsoPtOAb2Pmbqe1EB--79">
          <mxGeometry y="62" width="160" height="8" as="geometry" />
        </mxCell>
        <mxCell id="ilpsoPtOAb2Pmbqe1EB--83" value="" style="edgeStyle=elbowEdgeStyle;elbow=vertical;endArrow=block;html=1;rounded=0;endFill=0;entryX=1;entryY=0.25;entryDx=0;entryDy=0;startArrow=none;exitX=1;exitY=0;exitDx=0;exitDy=0;" edge="1" parent="WIyWlLk6GJQsqaUBKTNV-1" source="ilpsoPtOAb2Pmbqe1EB--67" target="ilpsoPtOAb2Pmbqe1EB--0">
          <mxGeometry width="50" height="50" relative="1" as="geometry">
            <mxPoint x="450" y="753.4500000000003" as="sourcePoint" />
            <mxPoint x="461.9200000000001" y="389.9959999999999" as="targetPoint" />
            <Array as="points">
              <mxPoint x="520" y="590" />
              <mxPoint x="460" y="650" />
              <mxPoint x="450" y="710" />
              <mxPoint x="460" y="370" />
              <mxPoint x="490" y="390.45" />
              <mxPoint x="510" y="400.45" />
              <mxPoint x="490" y="700.45" />
              <mxPoint x="510" y="590.45" />
              <mxPoint x="560" y="531.95" />
              <mxPoint x="540" y="511.95" />
              <mxPoint x="550" y="541.95" />
              <mxPoint x="540" y="561.95" />
              <mxPoint x="540" y="561.95" />
              <mxPoint x="540" y="571.95" />
              <mxPoint x="550" y="611.95" />
              <mxPoint x="540" y="711.95" />
              <mxPoint x="540" y="561.95" />
              <mxPoint x="550" y="571.95" />
              <mxPoint x="500" y="561.95" />
              <mxPoint x="550" y="581.95" />
              <mxPoint x="530" y="561.95" />
              <mxPoint x="445" y="673.95" />
            </Array>
          </mxGeometry>
        </mxCell>
        <mxCell id="ilpsoPtOAb2Pmbqe1EB--101" value="extends" style="edgeLabel;html=1;align=center;verticalAlign=middle;resizable=0;points=[];" vertex="1" connectable="0" parent="ilpsoPtOAb2Pmbqe1EB--83">
          <mxGeometry x="-0.8047" y="1" relative="1" as="geometry">
            <mxPoint as="offset" />
          </mxGeometry>
        </mxCell>
        <mxCell id="ilpsoPtOAb2Pmbqe1EB--84" value="" style="edgeStyle=elbowEdgeStyle;elbow=vertical;endArrow=block;html=1;rounded=0;endFill=0;entryX=1;entryY=0.25;entryDx=0;entryDy=0;startArrow=none;" edge="1" parent="WIyWlLk6GJQsqaUBKTNV-1" source="ilpsoPtOAb2Pmbqe1EB--63" target="ilpsoPtOAb2Pmbqe1EB--0">
          <mxGeometry width="50" height="50" relative="1" as="geometry">
            <mxPoint x="450" y="766.0000000000002" as="sourcePoint" />
            <mxPoint x="461.9200000000001" y="402.54599999999994" as="targetPoint" />
            <Array as="points">
              <mxPoint x="510" y="540" />
              <mxPoint x="450" y="390" />
              <mxPoint x="440" y="370" />
              <mxPoint x="450" y="390" />
              <mxPoint x="460" y="370" />
              <mxPoint x="470" y="520" />
              <mxPoint x="490" y="403" />
              <mxPoint x="510" y="413" />
              <mxPoint x="490" y="713" />
              <mxPoint x="510" y="603" />
              <mxPoint x="560" y="544.5" />
              <mxPoint x="540" y="524.5" />
              <mxPoint x="550" y="554.5" />
              <mxPoint x="540" y="574.5" />
              <mxPoint x="540" y="574.5" />
              <mxPoint x="540" y="584.5" />
              <mxPoint x="550" y="624.5" />
              <mxPoint x="540" y="724.5" />
              <mxPoint x="540" y="574.5" />
              <mxPoint x="550" y="584.5" />
              <mxPoint x="500" y="574.5" />
              <mxPoint x="550" y="594.5" />
              <mxPoint x="530" y="574.5" />
              <mxPoint x="445" y="686.5" />
            </Array>
          </mxGeometry>
        </mxCell>
        <mxCell id="ilpsoPtOAb2Pmbqe1EB--100" value="extends" style="edgeLabel;html=1;align=center;verticalAlign=middle;resizable=0;points=[];" vertex="1" connectable="0" parent="ilpsoPtOAb2Pmbqe1EB--84">
          <mxGeometry x="-0.8291" relative="1" as="geometry">
            <mxPoint as="offset" />
          </mxGeometry>
        </mxCell>
        <mxCell id="ilpsoPtOAb2Pmbqe1EB--86" value="" style="html=1;verticalAlign=bottom;endArrow=block;rounded=0;entryX=0.485;entryY=0.977;entryDx=0;entryDy=0;entryPerimeter=0;exitX=0.484;exitY=0.005;exitDx=0;exitDy=0;endFill=0;exitPerimeter=0;" edge="1" parent="WIyWlLk6GJQsqaUBKTNV-1" source="ilpsoPtOAb2Pmbqe1EB--59" target="ilpsoPtOAb2Pmbqe1EB--30">
          <mxGeometry width="80" relative="1" as="geometry">
            <mxPoint x="340" y="500" as="sourcePoint" />
            <mxPoint x="420" y="500" as="targetPoint" />
          </mxGeometry>
        </mxCell>
        <mxCell id="ilpsoPtOAb2Pmbqe1EB--119" value="extends" style="edgeLabel;html=1;align=center;verticalAlign=middle;resizable=0;points=[];" vertex="1" connectable="0" parent="ilpsoPtOAb2Pmbqe1EB--86">
          <mxGeometry x="-0.0999" relative="1" as="geometry">
            <mxPoint as="offset" />
          </mxGeometry>
        </mxCell>
        <mxCell id="ilpsoPtOAb2Pmbqe1EB--90" value="" style="endArrow=none;html=1;edgeStyle=orthogonalEdgeStyle;rounded=0;exitX=1.014;exitY=0.095;exitDx=0;exitDy=0;exitPerimeter=0;endFill=0;startArrow=block;startFill=0;entryX=0.994;entryY=0.393;entryDx=0;entryDy=0;entryPerimeter=0;" edge="1" parent="WIyWlLk6GJQsqaUBKTNV-1" source="ilpsoPtOAb2Pmbqe1EB--8" target="ilpsoPtOAb2Pmbqe1EB--125">
          <mxGeometry relative="1" as="geometry">
            <mxPoint x="570" y="440" as="sourcePoint" />
            <mxPoint x="710" y="520" as="targetPoint" />
            <Array as="points">
              <mxPoint x="810" y="367" />
              <mxPoint x="810" y="590" />
              <mxPoint x="702" y="590" />
            </Array>
          </mxGeometry>
        </mxCell>
        <mxCell id="ilpsoPtOAb2Pmbqe1EB--118" value="extends" style="edgeLabel;html=1;align=center;verticalAlign=middle;resizable=0;points=[];" vertex="1" connectable="0" parent="ilpsoPtOAb2Pmbqe1EB--90">
          <mxGeometry x="0.8438" y="-2" relative="1" as="geometry">
            <mxPoint as="offset" />
          </mxGeometry>
        </mxCell>
        <mxCell id="ilpsoPtOAb2Pmbqe1EB--110" value="" style="endArrow=none;html=1;edgeStyle=orthogonalEdgeStyle;rounded=0;entryX=0.5;entryY=0;entryDx=0;entryDy=0;exitX=0.489;exitY=1.005;exitDx=0;exitDy=0;exitPerimeter=0;startArrow=block;startFill=0;" edge="1" parent="WIyWlLk6GJQsqaUBKTNV-1" source="ilpsoPtOAb2Pmbqe1EB--31" target="ilpsoPtOAb2Pmbqe1EB--71">
          <mxGeometry relative="1" as="geometry">
            <mxPoint x="620" y="440" as="sourcePoint" />
            <mxPoint x="640" y="440" as="targetPoint" />
            <Array as="points">
              <mxPoint x="618" y="450" />
              <mxPoint x="620" y="450" />
            </Array>
          </mxGeometry>
        </mxCell>
        <mxCell id="ilpsoPtOAb2Pmbqe1EB--111" value="parent" style="edgeLabel;resizable=0;html=1;align=left;verticalAlign=bottom;" connectable="0" vertex="1" parent="ilpsoPtOAb2Pmbqe1EB--110">
          <mxGeometry x="-1" relative="1" as="geometry" />
        </mxCell>
        <mxCell id="ilpsoPtOAb2Pmbqe1EB--113" value="extends" style="edgeLabel;html=1;align=center;verticalAlign=middle;resizable=0;points=[];" vertex="1" connectable="0" parent="ilpsoPtOAb2Pmbqe1EB--110">
          <mxGeometry x="-0.2218" y="-1" relative="1" as="geometry">
            <mxPoint y="11" as="offset" />
          </mxGeometry>
        </mxCell>
        <mxCell id="ilpsoPtOAb2Pmbqe1EB--114" value="" style="endArrow=none;html=1;edgeStyle=orthogonalEdgeStyle;rounded=0;exitX=1.002;exitY=0.299;exitDx=0;exitDy=0;exitPerimeter=0;startArrow=block;startFill=0;" edge="1" parent="WIyWlLk6GJQsqaUBKTNV-1" source="ilpsoPtOAb2Pmbqe1EB--31">
          <mxGeometry relative="1" as="geometry">
            <mxPoint x="520" y="540" as="sourcePoint" />
            <mxPoint x="700" y="680" as="targetPoint" />
            <Array as="points">
              <mxPoint x="790" y="400" />
              <mxPoint x="790" y="680" />
              <mxPoint x="700" y="680" />
            </Array>
          </mxGeometry>
        </mxCell>
        <mxCell id="ilpsoPtOAb2Pmbqe1EB--117" value="extends" style="edgeLabel;html=1;align=center;verticalAlign=middle;resizable=0;points=[];" vertex="1" connectable="0" parent="ilpsoPtOAb2Pmbqe1EB--114">
          <mxGeometry x="0.8269" y="2" relative="1" as="geometry">
            <mxPoint as="offset" />
          </mxGeometry>
        </mxCell>
      </root>
    </mxGraphModel>
  </diagram>
</mxfile>
